# xmcd
#
# Track frame offsets: 
#        150
#        13067
#        29485
#        41946
#        54284
#        65348
#        74968
#        88413
#        103471
#        116828
#        126149
#        137780
#        150024
#        163210
#
# Disc length: 2351 seconds
#
# Revision: 0
# Processed by: cddbd v1.5.2PL0 Copyright (c) Steve Scherf et al.
# Submitted via: ExactAudioCopy v0.99pb4
#
DISCID=d3092d0e
DTITLE=Ray Charles - Lo mejor de Ray Charles. CD 2
DYEAR=1900
DGENRE=
TTITLE0=Unchain my heart
TTITLE1=Georgia on my mind
TTITLE2=I won´t let you go
TTITLE3=Goin´down slow
TTITLE4=A sentimental Blues
TTITLE5=Yes, indeed
TTITLE6=You are my sunshine
TTITLE7=Drown in my own tears
TTITLE8=Eleanor Rigby
TTITLE9=All to myself alone
TTITLE10=Ray Charles Blues
TTITLE11=Mess around
TTITLE12=Let´s go get stoned
TTITLE13=Crying time
EXTD=
EXTT0=
EXTT1=
EXTT2=
EXTT3=
EXTT4=
EXTT5=
EXTT6=
EXTT7=
EXTT8=
EXTT9=
EXTT10=
EXTT11=
EXTT12=
EXTT13=
PLAYORDER=
